{
  "accessors": [
    {
      "bufferView": 2,
      "componentType": 5126,
      "count": 1567,
      "max": [
        0.034013912081718445,
        0.0339040532708168,
        0.19999830424785614
      ],
      "min": [
        -0.03401392325758934,
        -0.03412378951907158,
        -1.687556505203247e-06
      ],
      "type": "VEC3"
    },
    {
      "bufferView": 2,
      "byteOffset": 18804,
      "componentType": 5126,
      "count": 1567,
      "max": [
        0.9999297857284546,
        0.9996695518493652,
        1.0
      ],
      "min": [
        -0.998896062374115,
        -0.9996695518493652,
        -1.0
      ],
      "type": "VEC3"
    },
    {
      "bufferView": 1,
      "componentType": 5126,
      "count": 1567,
      "max": [
        1.0,
        1.01572585105896
      ],
      "min": [
        -1.564621925354004e-07,
        0.0
      ],
      "type": "VEC2"
    },
    {
      "bufferView": 1,
      "byteOffset": 12536,
      "componentType": 5126,
      "count": 1567,
      "max": [
        0.9665798544883728,
        0.9795628786087036
      ],
      "min": [
        1.234557678309045e-09,
        -4.532602915219286e-08
      ],
      "type": "VEC2"
    },
    {
      "bufferView": 0,
      "componentType": 5125,
      "count": 5796,
      "type": "SCALAR"
    },
    {
      "bufferView": 2,
      "byteOffset": 37608,
      "componentType": 5126,
      "count": 462,
      "max": [
        0.034999992698431015,
        0.034890130162239075,
        0.16633734107017517
      ],
      "min": [
        -0.03500000387430191,
        -0.03510987013578415,
        0.13023965060710907
      ],
      "type": "VEC3"
    },
    {
      "bufferView": 2,
      "byteOffset": 43152,
      "componentType": 5126,
      "count": 462,
      "max": [
        0.9981566071510315,
        0.9981569051742554,
        1.0
      ],
      "min": [
        -0.9981569647789001,
        -0.9981566071510315,
        -1.0
      ],
      "type": "VEC3"
    },
    {
      "bufferView": 1,
      "byteOffset": 25072,
      "componentType": 5126,
      "count": 462,
      "max": [
        1.0,
        1.0
      ],
      "min": [
        -1.564621925354004e-07,
        0.0
      ],
      "type": "VEC2"
    },
    {
      "bufferView": 1,
      "byteOffset": 28768,
      "componentType": 5126,
      "count": 462,
      "max": [
        1.0000001192092896,
        0.9999170303344727
      ],
      "min": [
        -1.403270921684907e-08,
        -3.066688236685877e-08
      ],
      "type": "VEC2"
    },
    {
      "bufferView": 0,
      "byteOffset": 23184,
      "componentType": 5125,
      "count": 1620,
      "type": "SCALAR"
    }
  ],
  "asset": {
    "extras": {
      "author": "oxxycodone (https://sketchfab.com/oxxycodone)",
      "license": "CC-BY-4.0 (http://creativecommons.org/licenses/by/4.0/)",
      "source": "https://sketchfab.com/3d-models/game-ready-microphone-0e7499872a46467bbf0ec7abd57d3a6c",
      "title": "GAME READY MICROPHONE"
    },
    "generator": "Sketchfab-16.73.0",
    "version": "2.0"
  },
  "bufferViews": [
    {
      "buffer": 0,
      "byteLength": 29664,
      "name": "floatBufferViews",
      "target": 34963
    },
    {
      "buffer": 0,
      "byteLength": 32464,
      "byteOffset": 29664,
      "byteStride": 8,
      "name": "floatBufferViews",
      "target": 34962
    },
    {
      "buffer": 0,
      "byteLength": 48696,
      "byteOffset": 62128,
      "byteStride": 12,
      "name": "floatBufferViews",
      "target": 34962
    }
  ],
  "buffers": [
    {
      "byteLength": 110824,
      "uri": "scene.bin"
    }
  ],
  "materials": [
    {
      "doubleSided": true,
      "name": "black",
      "pbrMetallicRoughness": {
        "baseColorFactor": [
          0.0,
          0.0,
          0.0,
          1.0
        ],
        "metallicFactor": 0.0
      }
    },
    {
      "doubleSided": true,
      "name": "grey",
      "pbrMetallicRoughness": {
        "baseColorFactor": [
          0.0850268,
          0.0850268,
          0.0850268,
          1.0
        ],
        "metallicFactor": 0.0,
        "roughnessFactor": 0.9809874295290721
      }
    }
  ],
  "meshes": [
    {
      "name": "microphone_black_0",
      "primitives": [
        {
          "attributes": {
            "NORMAL": 1,
            "POSITION": 0,
            "TEXCOORD_0": 2,
            "TEXCOORD_1": 3
          },
          "indices": 4,
          "material": 0,
          "mode": 4
        }
      ]
    },
    {
      "name": "microphone_grey_0",
      "primitives": [
        {
          "attributes": {
            "NORMAL": 6,
            "POSITION": 5,
            "TEXCOORD_0": 7,
            "TEXCOORD_1": 8
          },
          "indices": 9,
          "material": 1,
          "mode": 4
        }
      ]
    }
  ],
  "nodes": [
    {
      "children": [
        1
      ],
      "matrix": [
        1.0,
        0.0,
        0.0,
        0.0,
        0.0,
        2.220446049250313e-16,
        -1.0,
        0.0,
        0.0,
        1.0,
        2.220446049250313e-16,
        0.0,
        0.0,
        0.0,
        0.0,
        1.0
      ],
      "name": "Sketchfab_model"
    },
    {
      "children": [
        2
      ],
      "matrix": [
        0.009999999776482582,
        0.0,
        0.0,
        0.0,
        0.0,
        0.0,
        0.009999999776482582,
        0.0,
        0.0,
        -0.009999999776482582,
        0.0,
        0.0,
        0.0,
        0.0,
        0.0,
        1.0
      ],
      "name": "microphone.fbx"
    },
    {
      "children": [
        3
      ],
      "name": "RootNode"
    },
    {
      "children": [
        4,
        5
      ],
      "matrix": [
        100.0,
        0.0,
        0.0,
        0.0,
        0.0,
        -1.629206793918314e-05,
        -99.99999999999868,
        0.0,
        0.0,
        99.99999999999868,
        -1.629206793918314e-05,
        0.0,
        0.0,
        0.0,
        0.0,
        1.0
      ],
      "name": "microphone"
    },
    {
      "mesh": 0,
      "name": "microphone_black_0"
    },
    {
      "mesh": 1,
      "name": "microphone_grey_0"
    }
  ],
  "scene": 0,
  "scenes": [
    {
      "name": "Sketchfab_Scene",
      "nodes": [
        0
      ]
    }
  ]
}
